<?xml version="1.0" encoding="UTF-8"?>
<svg xmlns="http://www.w3.org/2000/svg" xmlns:xlink="http://www.w3.org/1999/xlink" width="2834.88" height="2834.88" viewBox="0 0 2834.88 2834.88">
<path fill-rule="evenodd" fill="rgb(2.799988%, 1.800537%, 1.597595%)" fill-opacity="1" d="M 704.421875 2070.03125 C 546.804688 1897.992188 450.570312 1668.808594 450.570312 1417.320312 C 450.570312 883.761719 883.757812 450.570312 1417.320312 450.570312 C 1950.890625 450.570312 2384.070312 883.761719 2384.070312 1417.320312 C 2384.070312 1668.808594 2287.839844 1897.992188 2130.21875 2070.03125 C 2097.578125 1756.46875 1862.441406 1502.730469 1558.03125 1442.03125 C 1725.839844 1383.730469 1846.421875 1224.121094 1846.421875 1036.570312 C 1846.421875 799.738281 1654.148438 607.46875 1417.320312 607.46875 C 1180.488281 607.46875 988.222656 799.738281 988.222656 1036.570312 C 988.222656 1224.121094 1108.808594 1383.730469 1276.609375 1442.03125 C 972.207031 1502.730469 737.066406 1756.46875 704.421875 2070.03125 Z M 2071.96875 2128.445312 C 1899.710938 2287.117188 1669.75 2384.074219 1417.320312 2384.074219 C 1164.890625 2384.074219 934.933594 2287.117188 762.679688 2128.445312 C 771.464844 1774.648438 1061.429688 1490.128906 1417.320312 1490.128906 C 1773.21875 1490.128906 2063.179688 1774.648438 2071.96875 2128.445312 Z M 1417.320312 669.398438 C 1619.96875 669.398438 1784.488281 833.921875 1784.488281 1036.570312 C 1784.488281 1239.21875 1619.96875 1403.738281 1417.320312 1403.738281 C 1214.679688 1403.738281 1050.148438 1239.21875 1050.148438 1036.570312 C 1050.148438 833.921875 1214.679688 669.398438 1417.320312 669.398438 "/>
</svg>
